<svg xmlns="http://www.w3.org/2000/svg" width="34" height="26.828" viewBox="0 0 34 26.828">
  <g id="card" transform="translate(0 -54)">
    <path id="XMLID_311_" d="M31.211,59.844h-1.2V56.789A2.792,2.792,0,0,0,27.227,54H2.789A2.792,2.792,0,0,0,0,56.789V72.2a2.792,2.792,0,0,0,2.789,2.789h1.2v3.055a2.792,2.792,0,0,0,2.789,2.789H31.211A2.792,2.792,0,0,0,34,78.039V62.633A2.792,2.792,0,0,0,31.211,59.844Zm1.461,2.789V63.7H21.98a.664.664,0,1,0,0,1.328H32.672v2.391H5.313V65.024H16A.664.664,0,1,0,16,63.7H5.313V62.633a1.463,1.463,0,0,1,1.461-1.461H31.211A1.463,1.463,0,0,1,32.672,62.633ZM2.789,73.656A1.463,1.463,0,0,1,1.328,72.2V56.789a1.463,1.463,0,0,1,1.461-1.461H27.227a1.463,1.463,0,0,1,1.461,1.461v3.055H6.773a2.792,2.792,0,0,0-2.789,2.789V73.656ZM31.211,79.5H6.773a1.463,1.463,0,0,1-1.461-1.461v-9.3H32.672v9.3A1.463,1.463,0,0,1,31.211,79.5Z" transform="translate(0 0)" fill="#af2e2e"/>
    <path id="XMLID_1313_" d="M284.659,298a3.327,3.327,0,0,0-2.664,1.334,3.33,3.33,0,1,0,0,3.992A3.33,3.33,0,1,0,284.659,298Zm-5.328,5.328a2,2,0,1,1,2-2A2,2,0,0,1,279.33,303.328Zm5.328,0a2,2,0,1,1,2-2A2,2,0,0,1,284.659,303.328Z" transform="translate(-257.719 -227.829)" fill="#af2e2e"/>
    <path id="XMLID_1498_" d="M121.084,298h-3.508A1.578,1.578,0,0,0,116,299.576v3.508a1.578,1.578,0,0,0,1.576,1.576h3.508a1.578,1.578,0,0,0,1.576-1.576v-3.508A1.578,1.578,0,0,0,121.084,298Zm0,5.328h-3.508a.245.245,0,0,1-.244-.244v-3.508a.245.245,0,0,1,.244-.244h3.508a.245.245,0,0,1,.244.244v1.088h-1.71a.666.666,0,0,0,0,1.332h1.71v1.088A.244.244,0,0,1,121.084,303.328Z" transform="translate(-108.302 -227.829)" fill="#af2e2e"/>
    <path id="XMLID_1501_" d="M276.666,200a.666.666,0,1,0,.471.2A.671.671,0,0,0,276.666,200Z" transform="translate(-257.674 -136.306)" fill="#af2e2e"/>
  </g>
</svg>
