<svg xmlns="http://www.w3.org/2000/svg" width="15.894" height="16" viewBox="0 0 15.894 16">
  <g id="Group_16" data-name="Group 16" transform="translate(0 0)">
    <path id="Path_49" data-name="Path 49" d="M15.26,5.052A7.815,7.815,0,0,0,11.028.807,7.763,7.763,0,0,0,7.934.168,7.683,7.683,0,0,0,4.849.807,7.84,7.84,0,0,0,.626,5.052a8.05,8.05,0,0,0,0,6.223,7.857,7.857,0,0,0,4.223,4.254,7.683,7.683,0,0,0,3.085.639,7.766,7.766,0,0,0,3.094-.639,7.832,7.832,0,0,0,4.232-4.254,7.948,7.948,0,0,0,0-6.223ZM13.991,11.7a7,7,0,0,1-2.555,2.565,6.807,6.807,0,0,1-3.5.945,6.688,6.688,0,0,1-2.711-.56A7.1,7.1,0,0,1,3,13.148,7.118,7.118,0,0,1,1.512,10.9a6.934,6.934,0,0,1-.547-2.74,6.919,6.919,0,0,1,.93-3.519A7,7,0,0,1,4.441,2.076a6.754,6.754,0,0,1,3.493-.945,6.807,6.807,0,0,1,3.5.945,7.019,7.019,0,0,1,2.555,2.565,6.879,6.879,0,0,1,.938,3.519A6.945,6.945,0,0,1,13.991,11.7Z" transform="translate(0 -0.168)"/>
    <path id="Path_50" data-name="Path 50" d="M288.126,116.2v-4.766a.529.529,0,0,0-.53-.515.517.517,0,0,0-.5.515v4.839a.423.423,0,0,1,.018.074.483.483,0,0,0,.137.414l2.733,2.751a.517.517,0,0,0,.7,0,.5.5,0,0,0,0-.718Z" transform="translate(-279.748 -108.184)"/>
  </g>
</svg>
