<svg xmlns="http://www.w3.org/2000/svg" width="24" height="20" viewBox="0 0 24 20"><g><g><path fill="#af2e2e" d="M22.683 1.42V15.36c0 .083-.035.118-.118.118H1.408c-.082 0-.117-.035-.117-.118V1.302h21.392v.118zm0-1.385V0H1.29v.035C.599.083.082.634 0 1.302v14.059c0 .27.07.498.188.703.27.476.669.716 1.22.716H9.13v1.948H7.663a.637.637 0 0 0-.646.646c0 .363.282.646.646.646h8.648a.647.647 0 0 0 .657-.646.647.647 0 0 0-.657-.646h-1.467V16.78h7.721c.552 0 .954-.24 1.22-.716.122-.215.2-.445.2-.703V1.302c-.082-.668-.634-1.22-1.302-1.267z"/></g></g></svg>