<svg xmlns="http://www.w3.org/2000/svg" width="27" height="34" viewBox="0 0 27 34">
  <g id="currency" transform="translate(0 0)">
    <path id="Path_40" data-name="Path 40" d="M120.656,206a.657.657,0,0,0-.656.647v.009a.656.656,0,1,0,1.313,0v-.009A.657.657,0,0,0,120.656,206Zm0,0" transform="translate(-112.096 -192.314)" fill="#424242"/>
    <path id="Path_41" data-name="Path 41" d="M8.561,0C4.307,0,0,1.14,0,3.32V24.039c0,2.18,4.307,3.32,8.561,3.32.128,0,.256,0,.382,0a9.233,9.233,0,1,0,8.838-11.95c-.221,0-.443.009-.664.025,0-.436,0-7.017,0-7.873,0-.018,0-.036,0-.054s0-.025,0-.038l0-4.145h0C17.122,1.14,12.815,0,8.561,0Zm.447,21.843c-.151,0-.3,0-.447,0A17.584,17.584,0,0,1,3.182,21.1c-1.475-.5-1.864-1.033-1.864-1.248V17.527c1.6.967,4.433,1.465,7.244,1.465.682,0,1.36-.029,2.016-.085a9.384,9.384,0,0,0-1.569,2.936Zm3.108-4.474a20.751,20.751,0,0,1-3.555.295,17.584,17.584,0,0,1-5.379-.744c-1.475-.5-1.864-1.033-1.864-1.248V13.549a6.871,6.871,0,0,0,1.165.547,16.085,16.085,0,0,0,3.45.762.664.664,0,0,0,.075-1.324,12.156,12.156,0,0,1-3.948-1.086,1.457,1.457,0,0,1-.734-.7c-.017-.094,0,.092-.007-2.386,1.6.967,4.433,1.465,7.244,1.465a19.02,19.02,0,0,0,5.743-.795,7.465,7.465,0,0,0,1.5-.663c0,2.437,0,2.358,0,2.364a.753.753,0,0,1-.221.335c-.007,0-1.031,1.072-4.463,1.466h-.008a.664.664,0,0,0,.075,1.324,12.931,12.931,0,0,0,4.616-1.305v2.07a9.193,9.193,0,0,0-3.69,1.747Zm3.691-5.634v0S15.807,11.735,15.807,11.735Zm0-4.208c-.023.224-.452.758-1.915,1.241A17.7,17.7,0,0,1,8.561,9.5a17.584,17.584,0,0,1-5.379-.744C1.707,8.256,1.317,7.719,1.317,7.5V5.176c1.6.967,4.433,1.465,7.244,1.465s5.65-.5,7.25-1.464ZM3.182,2.072a17.584,17.584,0,0,1,5.379-.744,17.584,17.584,0,0,1,5.379.744c1.475.5,1.864,1.033,1.864,1.248s-.39.753-1.864,1.248a17.584,17.584,0,0,1-5.379.744,17.584,17.584,0,0,1-5.379-.744c-1.475-.5-1.864-1.033-1.864-1.248s.39-.753,1.864-1.248Zm0,23.215c-1.475-.5-1.864-1.033-1.864-1.248V21.711c1.6.967,4.433,1.465,7.244,1.465h.125a9.447,9.447,0,0,0-.031,2.855H8.561A17.584,17.584,0,0,1,3.182,25.287Zm22.5-.584a7.9,7.9,0,0,1-15.6,1.824v-.008a8.1,8.1,0,0,1,.052-3.843A7.9,7.9,0,0,1,25.683,24.7Zm0,0" transform="translate(0 0)" fill="#424242"/>
    <path id="Path_42" data-name="Path 42" d="M239.4,305.282a1.971,1.971,0,0,0,1.969,1.969.656.656,0,0,1,0,1.313,1.188,1.188,0,0,1-.852-.5.656.656,0,1,0-1,.844,2.718,2.718,0,0,0,1.2.855v.766a.656.656,0,1,0,1.313,0v-.769a1.969,1.969,0,0,0-.656-3.825.656.656,0,1,1,0-1.313,1.055,1.055,0,0,1,.71.343.656.656,0,1,0,.913-.943,2.532,2.532,0,0,0-.966-.6v-.765a.656.656,0,0,0-1.313,0v.769A1.972,1.972,0,0,0,239.4,305.282Zm0,0" transform="translate(-223.588 -281.783)" fill="#424242"/>
  </g>
</svg>
