<svg xmlns="http://www.w3.org/2000/svg" width="36" height="26" viewBox="0 0 36 26">
  <g id="delivery-truck_1_" data-name="delivery-truck (1)" transform="translate(0 0)">
    <path id="Path_31" data-name="Path 31" d="M413.39,300a1.39,1.39,0,1,0,1.39,1.39A1.39,1.39,0,0,0,413.39,300Zm0,0" transform="translate(-382.951 -279.561)" fill="#af2e2e"/>
    <path id="Path_32" data-name="Path 32" d="M412.7,220a.7.7,0,1,0,.7.7A.7.7,0,0,0,412.7,220Zm0,0" transform="translate(-382.951 -204.961)" fill="#af2e2e"/>
    <path id="Path_33" data-name="Path 33" d="M107.39,300a1.39,1.39,0,1,0,1.39,1.39A1.39,1.39,0,0,0,107.39,300Zm0,0" transform="translate(-98.54 -279.561)" fill="#af2e2e"/>
    <path id="Path_34" data-name="Path 34" d="M33.045,12.36,31.833,7.641a2.01,2.01,0,0,0,.652-1.483,2.084,2.084,0,0,0-2.109-2.053H24.75V2.053A2.084,2.084,0,0,0,22.641,0H2.11A2.084,2.084,0,0,0,0,2.053V19.842A2.084,2.084,0,0,0,2.11,21.9H4.641A4.168,4.168,0,0,0,8.86,26,4.168,4.168,0,0,0,13.078,21.9H26.156a4.22,4.22,0,0,0,8.437,0c0-.039,0-.078,0-.117A2.06,2.06,0,0,0,36,19.842V15.737a3.456,3.456,0,0,0-2.955-3.377ZM30.529,8.211l1.055,4.105h-5.84l1.612-1.569a.671.671,0,0,0,0-.968.717.717,0,0,0-.994,0L24.75,11.348V8.211Zm.549-2.053a.694.694,0,0,1-.7.684H24.75V5.474h5.625A.7.7,0,0,1,31.078,6.158ZM8.86,24.632A2.738,2.738,0,1,1,11.672,21.9,2.779,2.779,0,0,1,8.86,24.632Zm3.977-4.105a4.259,4.259,0,0,0-7.955,0H2.11a.7.7,0,0,1-.7-.684V2.053a.7.7,0,0,1,.7-.684H22.641a.7.7,0,0,1,.7.684V20.527Zm17.538,4.105A2.738,2.738,0,1,1,33.188,21.9,2.779,2.779,0,0,1,30.375,24.632ZM34.3,20.4a4.261,4.261,0,0,0-7.9.131H24.75V13.685h7.734a2.11,2.11,0,0,1,1.989,1.368H32.485a.684.684,0,1,0,0,1.368h2.109v3.421a.678.678,0,0,1-.291.554Zm0,0" transform="translate(0 0)" fill="#af2e2e"/>
    <path id="Path_35" data-name="Path 35" d="M92.256,60a6.256,6.256,0,1,0,6.256,6.256A6.263,6.263,0,0,0,92.256,60Zm0,11.121a4.866,4.866,0,1,1,4.866-4.866A4.871,4.871,0,0,1,92.256,71.121Zm0,0" transform="translate(-79.916 -55.953)" fill="#af2e2e"/>
    <path id="Path_36" data-name="Path 36" d="M169.475,102.78H167.39V100.7a.7.7,0,1,0-1.39,0v2.78a.7.7,0,0,0,.7.7h2.78a.7.7,0,0,0,0-1.39Zm0,0" transform="translate(-154.31 -93.178)" fill="#af2e2e"/>
  </g>
</svg>
