<svg xmlns="http://www.w3.org/2000/svg" width="20.278" height="20.283" viewBox="0 0 20.278 20.283">
  <g id="выйти" transform="translate(0.125 0.13)">
    <path id="Path_80" data-name="Path 80" d="M8.554,209.252H.626a.626.626,0,0,1,0-1.252H8.554a.626.626,0,0,1,0,1.252Zm0,0" transform="translate(0 -199.863)" fill="#af2e2e" stroke="#af2e2e" stroke-width="0.25"/>
    <path id="Path_81" data-name="Path 81" d="M123.3,135.5a.626.626,0,0,1-.442-1.069l2.687-2.687-2.687-2.686a.626.626,0,0,1,.885-.886l3.129,3.129a.626.626,0,0,1,0,.886l-3.129,3.129A.625.625,0,0,1,123.3,135.5Zm0,0" transform="translate(-117.873 -122.978)" fill="#af2e2e" stroke="#af2e2e" stroke-width="0.25"/>
    <path id="Path_82" data-name="Path 82" d="M300.337,20.108a1.671,1.671,0,0,1-1.669-1.669V3.418a1.68,1.68,0,0,1,1.13-1.585L304.812.161a1.687,1.687,0,0,1,2.2,1.587V16.77a1.68,1.68,0,0,1-1.129,1.584l-5.015,1.672A1.746,1.746,0,0,1,300.337,20.108Zm5.007-18.777a.49.49,0,0,0-.149.022L300.2,3.018a.43.43,0,0,0-.282.4V18.439a.44.44,0,0,0,.567.4l4.993-1.665a.432.432,0,0,0,.282-.4V1.749A.418.418,0,0,0,305.344,1.331Zm0,0" transform="translate(-286.985 -0.08)" fill="#af2e2e" stroke="#af2e2e" stroke-width="0.25"/>
    <path id="Path_83" data-name="Path 83" d="M171.294,4.173a.626.626,0,0,1-.626-.626V2.295A2.3,2.3,0,0,1,172.963,0h9.388a.626.626,0,1,1,0,1.252h-9.388a1.045,1.045,0,0,0-1.043,1.043V3.547A.626.626,0,0,1,171.294,4.173Zm0,0" transform="translate(-163.992)" fill="#af2e2e" stroke="#af2e2e" stroke-width="0.25"/>
    <path id="Path_84" data-name="Path 84" d="M176.3,345.5h-3.338a2.3,2.3,0,0,1-2.295-2.295v-1.252a.626.626,0,1,1,1.252,0v1.252a1.045,1.045,0,0,0,1.043,1.043H176.3a.626.626,0,0,1,0,1.252Zm0,0" transform="translate(-163.992 -327.98)" fill="#af2e2e" stroke="#af2e2e" stroke-width="0.25"/>
  </g>
</svg>
