<svg xmlns="http://www.w3.org/2000/svg" width="32.517" height="20.725" viewBox="0 0 32.517 20.725">
  <g id="view" transform="translate(0)">
    <g id="Group_22" data-name="Group 22">
      <g id="Group_21" data-name="Group 21">
        <path id="Path_76" data-name="Path 76" d="M32.31,102.565c-.29-.4-7.212-9.73-16.052-9.73S.5,102.168.206,102.565a1.073,1.073,0,0,0,0,1.265c.29.4,7.212,9.73,16.052,9.73s15.762-9.333,16.052-9.73A1.072,1.072,0,0,0,32.31,102.565Zm-16.052,8.851c-6.512,0-12.151-6.194-13.821-8.219,1.667-2.027,7.3-8.218,13.821-8.218s12.151,6.193,13.821,8.219C28.412,105.225,22.784,111.416,16.258,111.416Z" transform="translate(0 -92.835)" fill="#973232"/>
      </g>
    </g>
    <g id="Group_24" data-name="Group 24" transform="translate(8.756 2.861)">
      <g id="Group_23" data-name="Group 23">
        <path id="Path_77" data-name="Path 77" d="M162.224,154.725a7.5,7.5,0,1,0,7.5,7.5A7.511,7.511,0,0,0,162.224,154.725Zm0,12.5a5,5,0,1,1,5-5A5.007,5.007,0,0,1,162.224,167.228Z" transform="translate(-154.722 -154.725)" fill="#973232"/>
      </g>
    </g>
  </g>
</svg>
