<svg xmlns="http://www.w3.org/2000/svg" width="29" height="31" viewBox="0 0 29 31">
  <path id="Path_38" data-name="Path 38" d="M28.949,12.472,25.117,3.694a3.006,3.006,0,0,0-1.646-1.6l-2.078-.833L19,.063A.607.607,0,0,0,18.729,0H10.261A.606.606,0,0,0,10,.063l-2.394,1.2L5.528,2.1a3,3,0,0,0-1.646,1.6L.051,12.472a.606.606,0,0,0,.26.772L5.437,16.1v14.3a.6.6,0,0,0,.6.605H22.958a.6.6,0,0,0,.6-.605V16.1l5.127-2.854a.606.606,0,0,0,.26-.772ZM14.5,7.728,12.517,3.753h3.966ZM19,1.417l1.458.731L19,8.94a.6.6,0,0,1-.738.461l-2.89-.724ZM17.751,1.21l-.665,1.332H11.913L11.248,1.21ZM10,1.417l3.622,7.26-2.89.724A.6.6,0,0,1,10,8.941L8.543,2.148ZM6.646,29.789V27.367H22.354v2.422ZM23.562,14.713V11.7a.6.6,0,1,0-1.208,0V26.156H6.646V11.7a.6.6,0,1,0-1.208,0v3.012l-4.059-2.26L4.99,4.179a1.8,1.8,0,0,1,.987-.959l1.436-.576,1.4,6.55a1.812,1.812,0,0,0,2.212,1.381l3.474-.87,3.474.87a1.812,1.812,0,0,0,2.213-1.381l1.4-6.55,1.436.576a1.8,1.8,0,0,1,.987.959l3.612,8.274Zm0,0" transform="translate(0 0.001)" fill="#424242"/>
</svg>
