<svg id="grid" xmlns="http://www.w3.org/2000/svg" width="21.818" height="20" viewBox="0 0 21.818 20">
  <path id="Path_63" data-name="Path 63" d="M19.318,20H2.5A2.5,2.5,0,0,1,0,17.5V2.5A2.5,2.5,0,0,1,2.5,0H19.318a2.5,2.5,0,0,1,2.5,2.5v15A2.5,2.5,0,0,1,19.318,20ZM2.5,1.364A1.138,1.138,0,0,0,1.364,2.5v15A1.138,1.138,0,0,0,2.5,18.636H19.318A1.138,1.138,0,0,0,20.455,17.5V2.5a1.138,1.138,0,0,0-1.136-1.136Zm0,0" fill="#af2e2e"/>
  <path id="Path_64" data-name="Path 64" d="M21.136,129.364H.682a.682.682,0,0,1,0-1.364H21.136a.682.682,0,0,1,0,1.364Zm0,0" transform="translate(0 -122.545)" fill="#af2e2e"/>
  <path id="Path_65" data-name="Path 65" d="M21.136,236.032H.682a.682.682,0,0,1,0-1.364H21.136a.682.682,0,0,1,0,1.364Zm0,0" transform="translate(0 -224.668)" fill="#af2e2e"/>
  <path id="Path_66" data-name="Path 66" d="M21.136,342.7H.682a.682.682,0,0,1,0-1.364H21.136a.682.682,0,0,1,0,1.364Zm0,0" transform="translate(0 -326.787)" fill="#af2e2e"/>
  <path id="Path_67" data-name="Path 67" d="M118.014,142.545a.682.682,0,0,1-.682-.682V128.682a.682.682,0,1,1,1.364,0v13.182A.682.682,0,0,1,118.014,142.545Zm0,0" transform="translate(-112.332 -122.545)" fill="#af2e2e"/>
  <path id="Path_68" data-name="Path 68" d="M240.682,142.545a.682.682,0,0,1-.682-.682V128.682a.682.682,0,0,1,1.364,0v13.182A.682.682,0,0,1,240.682,142.545Zm0,0" transform="translate(-229.773 -122.545)" fill="#af2e2e"/>
  <path id="Path_69" data-name="Path 69" d="M363.35,142.545a.682.682,0,0,1-.682-.682V128.682a.682.682,0,0,1,1.364,0v13.182A.682.682,0,0,1,363.35,142.545Zm0,0" transform="translate(-347.213 -122.545)" fill="#af2e2e"/>
</svg>
