<svg xmlns="http://www.w3.org/2000/svg" width="28.1" height="25" viewBox="0 0 28.1 25">
  <path id="heart" d="M14.05,25a1.648,1.648,0,0,1-1.086-.408c-1.135-.993-2.23-1.925-3.2-2.748l0,0a59.426,59.426,0,0,1-6.977-6.548A10.459,10.459,0,0,1,0,8.445a8.783,8.783,0,0,1,2.229-6A7.556,7.556,0,0,1,7.85,0a7.068,7.068,0,0,1,4.415,1.524A9.033,9.033,0,0,1,14.05,3.388a9.034,9.034,0,0,1,1.785-1.864A7.068,7.068,0,0,1,20.25,0a7.557,7.557,0,0,1,5.621,2.447,8.783,8.783,0,0,1,2.229,6,10.458,10.458,0,0,1-2.787,6.846,59.413,59.413,0,0,1-6.976,6.548c-.967.824-2.063,1.758-3.2,2.753A1.649,1.649,0,0,1,14.05,25Z" transform="translate(0)" fill="#af2e2e"/>
</svg>
