<svg xmlns="http://www.w3.org/2000/svg" width="34.255" height="25.187" viewBox="0 0 34.255 25.187">
  <g id="id-card" transform="translate(0.125 -7.875)">
    <path id="Path_110" data-name="Path 110" d="M31.615,8H2.39A2.393,2.393,0,0,0,0,10.39V30.547a2.393,2.393,0,0,0,2.39,2.39H31.615A2.393,2.393,0,0,0,34,30.547V10.39A2.393,2.393,0,0,0,31.615,8Zm1.256,22.547A1.258,1.258,0,0,1,31.615,31.8H2.39a1.258,1.258,0,0,1-1.256-1.256V10.39A1.258,1.258,0,0,1,2.39,9.133H31.615a1.258,1.258,0,0,1,1.256,1.256Z" fill="#af2e2e" stroke="#af2e2e" stroke-width="0.25"/>
    <path id="Path_111" data-name="Path 111" d="M15,27.466l-2.062-1.053v-.219a4.094,4.094,0,0,0,1.934-2.473,1.687,1.687,0,0,0,.9-1.495V21.66a1.69,1.69,0,0,0-.652-1.331c-.354-2.142-1.849-3.228-4.448-3.228q-.184,0-.36.014a2.868,2.868,0,0,1-1.827-.419,2.323,2.323,0,0,1-.519-.449.679.679,0,0,0-1.211.5c.024.212.06.458.113.729.109.553.109.553-.044.883-.058.125-.129.278-.213.483a6.329,6.329,0,0,0-.4,1.5,1.692,1.692,0,0,0-.643,1.324v.567a1.687,1.687,0,0,0,.9,1.495A4.091,4.091,0,0,0,8.4,26.194v.213L6.264,27.46A2.424,2.424,0,0,0,5,29.59v.751c0,.455,0,1.52,5.667,1.52s5.667-1.065,5.667-1.52v-.706A2.413,2.413,0,0,0,15,27.466Zm.205,2.746c-.354.215-1.792.515-4.534.515s-4.18-.3-4.534-.515V29.59a1.282,1.282,0,0,1,.653-1.123l2.186-1.077a1.007,1.007,0,0,0,.561-.9V25.468l-.342-.147a3,3,0,0,1-1.709-2.162l-.081-.3-.3-.093a.572.572,0,0,1-.4-.537V21.66a.566.566,0,0,1,.307-.5l.266-.142.031-.3a5.321,5.321,0,0,1,.353-1.457c.075-.184.139-.322.192-.435a1.674,1.674,0,0,0,.214-1.063,4.045,4.045,0,0,0,2.336.477c.088-.007.178-.011.27-.011,2.122,0,3.158.769,3.36,2.493l.035.3.264.139a.569.569,0,0,1,.308.5v.567a.571.571,0,0,1-.4.537l-.3.093-.081.3a3,3,0,0,1-1.709,2.162l-.342.148v1.026a1,1,0,0,0,.546.893l2.139,1.093a1.284,1.284,0,0,1,.715,1.156Z" transform="translate(-2.166 -3.458)" fill="#af2e2e" stroke="#af2e2e" stroke-width="0.25"/>
    <path id="Path_112" data-name="Path 112" d="M29.567,22.133h5.667a.567.567,0,1,0,0-1.133H29.567a.567.567,0,0,0,0,1.133Z" transform="translate(-12.564 -5.632)" fill="#af2e2e" stroke="#af2e2e" stroke-width="0.25"/>
    <path id="Path_113" data-name="Path 113" d="M43.567,22.133h.567a.567.567,0,0,0,0-1.133h-.567a.567.567,0,0,0,0,1.133Z" transform="translate(-18.63 -5.632)" fill="#af2e2e" stroke="#af2e2e" stroke-width="0.25"/>
    <path id="Path_114" data-name="Path 114" d="M30.133,38h-.567a.567.567,0,1,0,0,1.133h.567a.567.567,0,1,0,0-1.133Z" transform="translate(-12.564 -12.998)" fill="#af2e2e" stroke="#af2e2e" stroke-width="0.25"/>
    <path id="Path_115" data-name="Path 115" d="M35.7,38H34.567a.567.567,0,0,0,0,1.133H35.7A.567.567,0,1,0,35.7,38Z" transform="translate(-14.731 -12.998)" fill="#af2e2e" stroke="#af2e2e" stroke-width="0.25"/>
    <path id="Path_116" data-name="Path 116" d="M41.133,38h-.567a.567.567,0,1,0,0,1.133h.567a.567.567,0,0,0,0-1.133Z" transform="translate(-17.33 -12.998)" fill="#af2e2e" stroke="#af2e2e" stroke-width="0.25"/>
    <path id="Path_117" data-name="Path 117" d="M46.7,38H45.567a.567.567,0,1,0,0,1.133H46.7A.567.567,0,0,0,46.7,38Z" transform="translate(-19.496 -12.998)" fill="#af2e2e" stroke="#af2e2e" stroke-width="0.25"/>
    <path id="Path_118" data-name="Path 118" d="M51.164,38.17a.567.567,0,1,0,.8,0A.592.592,0,0,0,51.164,38.17Z" transform="translate(-22.096 -13.003)" fill="#af2e2e" stroke="#af2e2e" stroke-width="0.25"/>
    <path id="Path_119" data-name="Path 119" d="M42.035,27H29.567a.567.567,0,0,0,0,1.133H42.035a.567.567,0,0,0,0-1.133Z" transform="translate(-12.564 -8.232)" fill="#af2e2e" stroke="#af2e2e" stroke-width="0.25"/>
    <path id="Path_120" data-name="Path 120" d="M42.035,33H29.567a.567.567,0,1,0,0,1.133H42.035a.567.567,0,0,0,0-1.133Z" transform="translate(-12.564 -10.831)" fill="#af2e2e" stroke="#af2e2e" stroke-width="0.25"/>
  </g>
</svg>
