<svg xmlns="http://www.w3.org/2000/svg" width="10.23" height="17.037" viewBox="0 0 10.23 17.037">
  <g id="odnoklassniki-logo" transform="translate(-19.074)">
    <g id="Group_21" data-name="Group 21" transform="translate(19.074 0)">
      <path id="Path_71" data-name="Path 71" d="M23.35,51.5a6.62,6.62,0,0,1-3.531-1.26c-.127-.1-.257-.195-.373-.306a1.058,1.058,0,0,1,1.2-1.725,2.064,2.064,0,0,1,.292.173,5.789,5.789,0,0,0,6.417.059,1.74,1.74,0,0,1,.625-.323.981.981,0,0,1,1.124.449.952.952,0,0,1-.068,1.252,5.184,5.184,0,0,1-1.867,1.206,8.76,8.76,0,0,1-2.119.475c.109.119.16.177.229.246.981.986,1.966,1.967,2.944,2.956a.974.974,0,0,1,.219,1.146,1.162,1.162,0,0,1-1.09.68,1.061,1.061,0,0,1-.69-.353c-.74-.745-1.494-1.476-2.22-2.235-.211-.221-.313-.179-.5.013-.745.767-1.5,1.522-2.263,2.272a.949.949,0,0,1-1.145.205,1.159,1.159,0,0,1-.669-1.067,1.068,1.068,0,0,1,.359-.716q1.456-1.454,2.907-2.912C23.2,51.672,23.257,51.6,23.35,51.5Z" transform="translate(-19.074 -39.504)" fill="#333"/>
      <path id="Path_72" data-name="Path 72" d="M27.868,8.623a4.312,4.312,0,1,1,4.338-4.256A4.314,4.314,0,0,1,27.868,8.623Zm2.141-4.315a2.109,2.109,0,1,0-2.1,2.115A2.1,2.1,0,0,0,30.009,4.308Z" transform="translate(-22.787 0)" fill="#333"/>
    </g>
  </g>
</svg>
