<svg id="online-payment" xmlns="http://www.w3.org/2000/svg" width="33.006" height="34.002" viewBox="0 0 33.006 34.002">
  <path id="Path_91" data-name="Path 91" d="M355.7,247.328h-3.232a.664.664,0,1,1,0-1.328H355.7a.664.664,0,0,1,0,1.328Zm0,0" transform="translate(-328.441 -229.663)" fill="#af2e2e"/>
  <path id="Path_92" data-name="Path 92" d="M149.3,55.715a.664.664,0,1,1,.653-.546A.67.67,0,0,1,149.3,55.715Zm0,0" transform="translate(-138.769 -50.776)" fill="#af2e2e"/>
  <path id="Path_93" data-name="Path 93" d="M140.8,452.641h-1.327a.664.664,0,1,1,0-1.328H140.8a.664.664,0,1,1,0,1.328Zm0,0" transform="translate(-129.594 -421.34)" fill="#af2e2e"/>
  <path id="Path_94" data-name="Path 94" d="M32.342,9.776H21.093V3.452A3.456,3.456,0,0,0,17.641,0H3.452A3.456,3.456,0,0,0,0,3.452v27.1A3.456,3.456,0,0,0,3.452,34h14.19a3.456,3.456,0,0,0,3.452-3.452V24.226H32.342a.664.664,0,0,0,.664-.664V10.44A.664.664,0,0,0,32.342,9.776ZM31.678,11.1V14.37A4,4,0,0,1,28.413,11.1ZM3.452,1.328h14.19a2.126,2.126,0,0,1,2.123,2.124v.159H13.55a.664.664,0,1,0,0,1.328h6.215V27.27H1.328V4.939H7.543a.664.664,0,1,0,0-1.328H1.328V3.452A2.126,2.126,0,0,1,3.452,1.328ZM19.765,30.551a2.126,2.126,0,0,1-2.124,2.124H3.452a2.126,2.126,0,0,1-2.124-2.124V28.6H19.765ZM21.093,11.1h5.978a5.324,5.324,0,0,0,4.608,4.607v2.579A5.324,5.324,0,0,0,27.071,22.9H21.093ZM31.678,22.9H28.413a4,4,0,0,1,3.265-3.265Zm0,0" fill="#af2e2e"/>
  <path id="Path_95" data-name="Path 95" d="M65.453,139.28H63.1a.664.664,0,0,0-.664.664v8.692a2.238,2.238,0,0,0,2.236,2.236H73a2.238,2.238,0,0,0,2.236-2.236v-8.692a.664.664,0,0,0-.664-.664H72.215a3.382,3.382,0,0,0-6.762,0Zm8.453,9.356a.908.908,0,0,1-.907.907H64.669a.908.908,0,0,1-.907-.907v-8.028h1.69v1.941a.664.664,0,0,0,1.328,0v-1.941h4.107v1.941a.664.664,0,1,0,1.328,0v-1.941h1.69ZM68.834,137.3a2.056,2.056,0,0,1,2.052,1.983h-4.1A2.056,2.056,0,0,1,68.834,137.3Zm0,0" transform="translate(-58.287 -126.939)" fill="#af2e2e"/>
</svg>
