<svg xmlns="http://www.w3.org/2000/svg" width="30.965" height="34.5" viewBox="0 0 30.965 34.5">
  <g id="paypal" transform="translate(-24.713 0.25)">
    <g id="Group_25" data-name="Group 25" transform="translate(24.964 0)">
      <path id="Path_109" data-name="Path 109" d="M55.418,16.02a8.533,8.533,0,0,0-6.808-7.877A8.5,8.5,0,0,0,40.127,0H29.8a1.7,1.7,0,0,0-1.69,1.505l-3.138,27.2a1.7,1.7,0,0,0,1.69,1.895h5.426l-.238,1.421A1.7,1.7,0,0,0,33.532,34h5.595a1.7,1.7,0,0,0,1.687-1.489l.947-7.577h5.166a8.5,8.5,0,0,0,8.5-8.5Q55.428,16.227,55.418,16.02ZM32.26,29.467H26.666a.56.56,0,0,1-.422-.189h0a.563.563,0,0,1-.141-.443l3.139-27.2a.567.567,0,0,1,.562-.5H40.127a7.371,7.371,0,0,1,7.34,6.836c-.253-.022-.51-.036-.765-.036H36.6a1.7,1.7,0,0,0-1.689,1.505l-.542,4.7a.567.567,0,0,0,1.126.13l.542-4.7a.567.567,0,0,1,.563-.5H46.7q.385,0,.761.037a7.372,7.372,0,0,1-7.334,6.763H35.461a1.7,1.7,0,0,0-1.687,1.489Zm20-7.95v0A7.3,7.3,0,0,1,46.927,23.8H41.261a.567.567,0,0,0-.562.5L39.689,32.37a.567.567,0,0,1-.563.5H33.532a.567.567,0,0,1-.559-.66l.346-2.08v-.011a.017.017,0,0,1,0-.012L34.9,17.5a.567.567,0,0,1,.563-.5h4.666a8.509,8.509,0,0,0,8.459-7.7,7.39,7.39,0,0,1,5.7,6.772A7.31,7.31,0,0,1,52.259,21.516Z" transform="translate(-24.964 0)" fill="#af2e2e" stroke="#af2e2e" stroke-width="0.5"/>
    </g>
  </g>
</svg>
