<svg xmlns="http://www.w3.org/2000/svg" width="16" height="16" viewBox="0 0 16 16">
  <path id="phone" d="M15.992,12.815a.774.774,0,0,1-.237.678L13.5,15.73a1.268,1.268,0,0,1-.4.288,1.644,1.644,0,0,1-.483.153l-.1.009q-.085.008-.22.009a7.8,7.8,0,0,1-1.042-.11A7.907,7.907,0,0,1,9.5,15.535a14.783,14.783,0,0,1-2.363-1.3,17.62,17.62,0,0,1-2.812-2.373A18.569,18.569,0,0,1,2.357,9.629,15.942,15.942,0,0,1,1.1,7.654,10.639,10.639,0,0,1,.392,6.01,8.727,8.727,0,0,1,.071,4.739,4.2,4.2,0,0,1,0,3.9Q.02,3.595.02,3.561a1.648,1.648,0,0,1,.152-.483,1.27,1.27,0,0,1,.288-.4L2.713.425A.746.746,0,0,1,3.255.188a.632.632,0,0,1,.39.127,1.178,1.178,0,0,1,.288.314L5.745,4.069a.825.825,0,0,1,.085.593,1.057,1.057,0,0,1-.288.542l-.83.831a.283.283,0,0,0-.059.11.419.419,0,0,0-.025.127,3.062,3.062,0,0,0,.3.814,7.469,7.469,0,0,0,.627.992,11.007,11.007,0,0,0,1.2,1.347,11.222,11.222,0,0,0,1.355,1.212,7.824,7.824,0,0,0,.991.636,2.633,2.633,0,0,0,.61.246l.212.042a.4.4,0,0,0,.11-.025.283.283,0,0,0,.11-.059l.965-.983a1.037,1.037,0,0,1,.711-.271.885.885,0,0,1,.457.1H12.3l3.269,1.932A.853.853,0,0,1,15.992,12.815Z" transform="translate(0 -0.188)" fill="#af2e2e"/>
</svg>
