<svg id="Group_20" data-name="Group 20" xmlns="http://www.w3.org/2000/svg" width="13.12" height="16.977" viewBox="0 0 13.12 16.977">
  <g id="Group_19" data-name="Group 19">
    <path id="Path_52" data-name="Path 52" d="M67.043,4.721C66.582,1.365,63.261-.343,59.717.057a6.351,6.351,0,0,0-5.711,5.857c-.071,1.991.49,3.484,2.372,3.9.815-1.452-.262-1.769-.431-2.82-.69-4.3,4.925-7.232,7.865-4.229,2.036,2.08.695,8.474-2.586,7.808-3.142-.635,1.539-5.725-.969-6.723-2.039-.813-3.121,2.483-2.154,4.121-.567,2.817-1.788,5.47-1.293,9,1.6-1.171,2.143-3.411,2.586-5.749a4.563,4.563,0,0,0,2.263,1.083C65.445,12.608,67.562,8.507,67.043,4.721Z" transform="translate(-54 0)" fill="#010002"/>
  </g>
</svg>
