<svg xmlns="http://www.w3.org/2000/svg" width="14.563" height="20.5" viewBox="0 0 14.563 20.5">
  <g id="placeholder" transform="translate(-75.75 0.25)">
    <path id="Path_86" data-name="Path 86" d="M83.031,0A7.033,7.033,0,0,0,77.05,10.729l5.581,8.994a.586.586,0,0,0,.5.277h0a.586.586,0,0,0,.5-.285l5.439-9.082A7.033,7.033,0,0,0,83.031,0Zm5.034,10.032L83.12,18.289l-5.074-8.177a5.863,5.863,0,1,1,10.019-.079Z" fill="#af2e2e" stroke="#af2e2e" stroke-width="0.5"/>
    <path id="Path_87" data-name="Path 87" d="M169.516,90a3.516,3.516,0,1,0,3.516,3.516A3.52,3.52,0,0,0,169.516,90Zm0,5.867a2.352,2.352,0,1,1,2.348-2.352A2.353,2.353,0,0,1,169.516,95.867Z" transform="translate(-86.484 -86.484)" fill="#af2e2e" stroke="#af2e2e" stroke-width="0.5"/>
  </g>
</svg>
