<svg xmlns="http://www.w3.org/2000/svg" width="34.01" height="34.01" viewBox="0 0 34.01 34.01">
  <g id="resume" transform="translate(-0.007 0)">
    <g id="Group_27" data-name="Group 27" transform="translate(0.007)">
      <g id="Group_26" data-name="Group 26">
        <path id="Path_123" data-name="Path 123" d="M27.507,9.881a.664.664,0,0,0,.664-.664V1.993A2,2,0,0,0,26.179,0H2A2,2,0,0,0,.007,1.993V32.017A2,2,0,0,0,2,34.01H26.179a2,2,0,0,0,1.993-1.993V27.124a.664.664,0,1,0-1.329,0v4.894a.665.665,0,0,1-.664.664H2a.665.665,0,0,1-.664-.664V1.993A.665.665,0,0,1,2,1.329H26.179a.665.665,0,0,1,.664.664V9.217A.664.664,0,0,0,27.507,9.881Z" transform="translate(-0.007)" fill="#af2e2e"/>
      </g>
    </g>
    <g id="Group_29" data-name="Group 29" transform="translate(7.978 3.587)">
      <g id="Group_28" data-name="Group 28">
        <path id="Path_124" data-name="Path 124" d="M126.118,54a6.108,6.108,0,0,0-4.193,10.553.658.658,0,0,0,.071.066,6.1,6.1,0,0,0,8.243,0,.667.667,0,0,0,.071-.066A6.108,6.108,0,0,0,126.118,54Zm0,10.894a4.757,4.757,0,0,1-2.889-.974,3.321,3.321,0,0,1,5.778,0A4.757,4.757,0,0,1,126.118,64.894Zm-1.063-5.048v-.432a1.063,1.063,0,0,1,2.126,0v.432a1.063,1.063,0,0,1-2.126,0Zm4.912,3.1a4.608,4.608,0,0,0-1.957-1.641,2.379,2.379,0,0,0,.5-1.46v-.432a2.391,2.391,0,0,0-4.783,0v.432a2.379,2.379,0,0,0,.5,1.46,4.608,4.608,0,0,0-1.957,1.641,4.783,4.783,0,1,1,7.7,0Z" transform="translate(-120.007 -54)" fill="#af2e2e"/>
      </g>
    </g>
    <g id="Group_31" data-name="Group 31" transform="translate(13.425 29.095)">
      <g id="Group_30" data-name="Group 30">
        <path id="Path_125" data-name="Path 125" d="M206.258,438h-3.587a.664.664,0,1,0,0,1.328h3.587a.664.664,0,1,0,0-1.328Z" transform="translate(-202.007 -438)" fill="#af2e2e"/>
      </g>
    </g>
    <g id="Group_33" data-name="Group 33" transform="translate(7.58 25.375)">
      <g id="Group_32" data-name="Group 32">
        <path id="Path_126" data-name="Path 126" d="M124.1,382h-9.432a.664.664,0,0,0,0,1.329H124.1a.664.664,0,0,0,0-1.329Z" transform="translate(-114.007 -382)" fill="#af2e2e"/>
      </g>
    </g>
    <g id="Group_35" data-name="Group 35" transform="translate(7.58 21.655)">
      <g id="Group_34" data-name="Group 34">
        <path id="Path_127" data-name="Path 127" d="M124.1,326h-9.432a.664.664,0,0,0,0,1.329H124.1a.664.664,0,0,0,0-1.329Z" transform="translate(-114.007 -326)" fill="#af2e2e"/>
      </g>
    </g>
    <g id="Group_37" data-name="Group 37" transform="translate(4.742 17.935)">
      <g id="Group_36" data-name="Group 36">
        <path id="Path_128" data-name="Path 128" d="M72.421,270.195a.664.664,0,1,0,.195.47A.669.669,0,0,0,72.421,270.195Z" transform="translate(-71.287 -270)" fill="#af2e2e"/>
      </g>
    </g>
    <g id="Group_39" data-name="Group 39" transform="translate(4.742 21.655)">
      <g id="Group_38" data-name="Group 38">
        <path id="Path_129" data-name="Path 129" d="M72.421,326.195a.664.664,0,1,0,.195.47A.671.671,0,0,0,72.421,326.195Z" transform="translate(-71.287 -326)" fill="#af2e2e"/>
      </g>
    </g>
    <g id="Group_41" data-name="Group 41" transform="translate(4.742 25.375)">
      <g id="Group_40" data-name="Group 40">
        <path id="Path_130" data-name="Path 130" d="M72.421,382.195a.664.664,0,1,0,.195.47A.67.67,0,0,0,72.421,382.195Z" transform="translate(-71.287 -382)" fill="#af2e2e"/>
      </g>
    </g>
    <g id="Group_43" data-name="Group 43" transform="translate(7.58 17.935)">
      <g id="Group_42" data-name="Group 42">
        <path id="Path_131" data-name="Path 131" d="M124.1,270h-9.432a.664.664,0,0,0,0,1.329H124.1a.664.664,0,0,0,0-1.329Z" transform="translate(-114.007 -270)" fill="#af2e2e"/>
      </g>
    </g>
    <g id="Group_45" data-name="Group 45" transform="translate(19.774 8.282)">
      <g id="Group_44" data-name="Group 44">
        <path id="Path_132" data-name="Path 132" d="M310.437,125.05a2.79,2.79,0,0,0-3.811,1.021l-8.359,14.478a.666.666,0,0,0-.085.258l-.588,5.27a.664.664,0,0,0,1.054.609l4.27-3.145a.663.663,0,0,0,.181-.2l8.359-14.478A2.793,2.793,0,0,0,310.437,125.05Zm-11.355,19.667.307-2.752,1.923,1.11Zm3.2-2.617-2.531-1.461,6.708-11.619,2.531,1.461Zm8.027-13.9-.655,1.134-2.531-1.461.655-1.134a1.461,1.461,0,0,1,2.531,1.461Z" transform="translate(-297.589 -124.675)" fill="#af2e2e"/>
      </g>
    </g>
  </g>
</svg>
