<svg xmlns="http://www.w3.org/2000/svg" width="33" height="33" viewBox="0 0 33 33">
  <g id="return" transform="translate(0 0)">
    <path id="Path_46" data-name="Path 46" d="M100.907,5.9l4.4,3.833a1.191,1.191,0,0,0,1.959-.891V8.084a8.543,8.543,0,0,1,3.492.96,6.24,6.24,0,0,1,2.915,3.55,1.192,1.192,0,0,0,1.14.824c.124,0,.249-.01.373-.016a1.2,1.2,0,0,0,1.138-1.253v-.009a9.526,9.526,0,0,0-.824-3.372,11.027,11.027,0,0,0-4.673-4.906,16.246,16.246,0,0,0-3.56-1.424V1.174a1.194,1.194,0,0,0-1.959-.891l-4.4,3.833a1.2,1.2,0,0,0,0,1.783Zm.639-1.049,4.4-3.834a.21.21,0,0,1,.346.158V2.81a.487.487,0,0,0,.376.474c.093.022.2.05.294.08A15.34,15.34,0,0,1,110.328,4.7a10.093,10.093,0,0,1,4.284,4.472,8.542,8.542,0,0,1,.738,3.022V12.2a.221.221,0,0,1-.211.229l-.318.014h-.011a.224.224,0,0,1-.214-.15,7.222,7.222,0,0,0-3.377-4.106,9.692,9.692,0,0,0-4.391-1.1.5.5,0,0,0-.537.486V8.841a.211.211,0,0,1-.346.158l-4.4-3.833a.211.211,0,0,1,0-.315Zm0,0" transform="translate(-94.067 -0.001)" fill="#424242"/>
    <path id="Path_47" data-name="Path 47" d="M1.437,225.937H2.606v7.654a1.978,1.978,0,0,0,1.97,1.982H28.424a1.978,1.978,0,0,0,1.97-1.982v-7.654h1.169a1.461,1.461,0,0,0,1.337-1.984l-2.54-6.408a.484.484,0,0,0-.449-.306H27.357a.487.487,0,0,0,0,.973h2.226l2.419,6.1a.478.478,0,0,1-.438.651H16.419a.474.474,0,0,1-.438-.3l-2.558-6.454h12a.486.486,0,0,0,0-.973H3.089a.483.483,0,0,0-.449.306L.1,223.953a1.461,1.461,0,0,0,1.336,1.984Zm11.272,5.146a.485.485,0,0,0,.484-.486v-10.34l1.89,4.768a1.432,1.432,0,0,0,1.337.911H29.427v7.654a1.007,1.007,0,0,1-1,1.009H13.192v-2.057a.484.484,0,1,0-.967,0V234.6H4.576a1.007,1.007,0,0,1-1-1.009v-7.654H9a1.447,1.447,0,0,0,1.337-.912l1.89-4.768V230.6a.485.485,0,0,0,.483.486ZM1,224.313l2.419-6.1H12l-2.558,6.454a.472.472,0,0,1-.438.3H1.437A.479.479,0,0,1,1,224.313Zm0,0" transform="translate(0 -202.574)" fill="#424242"/>
  </g>
</svg>
