<svg xmlns="http://www.w3.org/2000/svg" width="22.001" height="27.362" viewBox="0 0 22.001 27.362">
  <g id="shopping-bag" transform="translate(0.25 0.25)">
    <path id="Path_8" data-name="Path 8" d="M70.3,23.22,68.757,5.9a.74.74,0,0,0-.736-.676H64.857a5.307,5.307,0,0,0-10.613,0H51.08a.736.736,0,0,0-.736.676L48.805,23.22c0,.022-.005.044-.005.066a3.828,3.828,0,0,0,4.032,3.576H66.269A3.828,3.828,0,0,0,70.3,23.286.267.267,0,0,0,70.3,23.22ZM59.55,1.483a3.827,3.827,0,0,1,3.823,3.741H55.727A3.827,3.827,0,0,1,59.55,1.483Zm6.718,23.9H52.832a2.367,2.367,0,0,1-2.549-2.06L51.755,6.713h2.483V8.965a.742.742,0,1,0,1.483,0V6.713h7.652V8.965a.742.742,0,0,0,1.483,0V6.713H67.34l1.478,16.606A2.37,2.37,0,0,1,66.269,25.379Z" transform="translate(-48.8)" fill="#323232" stroke="#323232" stroke-width="0.5"/>
  </g>
</svg>
