<svg xmlns="http://www.w3.org/2000/svg" width="34.292" height="34.26" viewBox="0 0 34.292 34.26">
  <g id="transfer" transform="translate(0.166 0.135)">
    <path id="Path_101" data-name="Path 101" d="M27.768,1.7H6.234V.567a.567.567,0,0,0-.967-.4l-5.1,5.1a.566.566,0,0,0,0,.8l5.1,5.1a.566.566,0,0,0,.967-.4V9.633H27.768a1.7,1.7,0,0,1,1.7,1.7V18.7a1.7,1.7,0,0,1-1.7,1.7H24.934V15.3a.566.566,0,0,0-.567-.567H.568A.566.566,0,0,0,0,15.3V33.433A.566.566,0,0,0,.568,34h23.8a.566.566,0,0,0,.567-.567V23.8h2.833A6.241,6.241,0,0,0,34,17.566V7.933A6.241,6.241,0,0,0,27.768,1.7ZM1.135,29.466H23.8V30.6H1.135Zm0-3.915a3.4,3.4,0,0,1,2.782,2.782H1.135ZM23.8,23.233v1.173a4.537,4.537,0,0,0-3.928,3.927H5.062a4.538,4.538,0,0,0-3.928-3.927V19.793a4.537,4.537,0,0,0,3.928-3.928H19.874A4.537,4.537,0,0,0,23.8,19.793v3.44Zm0,2.318v2.782H21.019A3.4,3.4,0,0,1,23.8,25.551Zm0-6.9a3.4,3.4,0,0,1-2.782-2.782H23.8ZM3.917,15.866a3.4,3.4,0,0,1-2.782,2.782V15.866Zm-2.782,17V31.733H23.8v1.133Zm31.733-15.3a5.105,5.105,0,0,1-5.1,5.1H24.934V21.533h2.833A2.836,2.836,0,0,0,30.6,18.7V11.333A2.837,2.837,0,0,0,27.768,8.5H5.668a.566.566,0,0,0-.567.567V9.4L1.369,5.666,5.1,1.934v.332a.566.566,0,0,0,.567.567h22.1a5.106,5.106,0,0,1,5.1,5.1Zm0,0" transform="translate(0 0)" fill="#af2e2e" stroke="#af2e2e" stroke-width="0.25"/>
    <path id="Path_102" data-name="Path 102" d="M124.055,256a4.051,4.051,0,1,0,4.051,4.051A4.056,4.056,0,0,0,124.055,256Zm0,6.944a2.893,2.893,0,1,1,2.893-2.893A2.9,2.9,0,0,1,124.055,262.948Zm0,0" transform="translate(-111.558 -237.988)" fill="#af2e2e" stroke="#af2e2e" stroke-width="0.25"/>
    <path id="Path_103" data-name="Path 103" d="M264,304h1.157v1.157H264Zm0,0" transform="translate(-245.317 -282.487)" fill="#af2e2e" stroke="#af2e2e" stroke-width="0.25"/>
    <path id="Path_104" data-name="Path 104" d="M72,304h1.157v1.157H72Zm0,0" transform="translate(-66.795 -282.487)" fill="#af2e2e" stroke="#af2e2e" stroke-width="0.25"/>
    <path id="Path_105" data-name="Path 105" d="M88,56h5.208v1.157H88Zm0,0" transform="translate(-81.793 -51.953)" fill="#af2e2e" stroke="#af2e2e" stroke-width="0.25"/>
    <path id="Path_106" data-name="Path 106" d="M176,56h1.157v1.157H176Zm0,0" transform="translate(-163.545 -51.953)" fill="#af2e2e" stroke="#af2e2e" stroke-width="0.25"/>
    <path id="Path_107" data-name="Path 107" d="M208,56h1.157v1.157H208Zm0,0" transform="translate(-193.28 -51.953)" fill="#af2e2e" stroke="#af2e2e" stroke-width="0.25"/>
    <path id="Path_108" data-name="Path 108" d="M240,56h1.157v1.157H240Zm0,0" transform="translate(-223.015 -51.953)" fill="#af2e2e" stroke="#af2e2e" stroke-width="0.25"/>
  </g>
</svg>
