<svg xmlns="http://www.w3.org/2000/svg" width="22" height="24" viewBox="0 0 22 24"><g><g><path fill="#af2e2e" d="M7.54 3.658c.918-.933 1.994-1.386 3.291-1.386s2.373.453 3.29 1.386c.918.933 1.364 2.027 1.364 3.345 0 1.319-.446 2.413-1.363 3.346-.918.933-1.994 1.386-3.29 1.386-1.297 0-2.373-.453-3.291-1.386-.918-.933-1.364-2.027-1.364-3.346 0-1.318.446-2.412 1.364-3.345zm3.291 9.599c1.69 0 3.153-.616 4.35-1.832 1.195-1.216 1.801-2.703 1.801-4.422 0-1.717-.606-3.205-1.802-4.421C13.984 1.366 12.52.75 10.831.75c-1.69 0-3.153.616-4.349 1.832C5.287 3.798 4.68 5.285 4.68 7.003c0 1.719.607 3.206 1.802 4.422 1.196 1.216 2.66 1.832 4.35 1.832z"/><path fill="none" stroke="#af2e2e" stroke-miterlimit="50" stroke-width=".4" d="M7.54 3.658c.918-.933 1.994-1.386 3.291-1.386s2.373.453 3.29 1.386c.918.933 1.364 2.027 1.364 3.345 0 1.319-.446 2.413-1.363 3.346-.918.933-1.994 1.386-3.29 1.386-1.297 0-2.373-.453-3.291-1.386-.918-.933-1.364-2.027-1.364-3.346 0-1.318.446-2.412 1.364-3.345zm3.291 9.599c1.69 0 3.153-.616 4.35-1.832 1.195-1.216 1.801-2.703 1.801-4.422 0-1.717-.606-3.205-1.802-4.421C13.984 1.366 12.52.75 10.831.75c-1.69 0-3.153.616-4.349 1.832C5.287 3.798 4.68 5.285 4.68 7.003c0 1.719.607 3.206 1.802 4.422 1.196 1.216 2.66 1.832 4.35 1.832z"/></g><g><path fill="#af2e2e" d="M18.427 20.903c-.5.518-1.163.77-2.028.77H5.129c-.866 0-1.53-.252-2.029-.77-.49-.507-.728-1.2-.728-2.117 0-.477.014-.947.043-1.4.028-.443.086-.93.171-1.448.085-.511.192-.991.32-1.426.123-.416.29-.829.498-1.226.198-.379.426-.704.677-.965.235-.245.532-.446.881-.596a2.934 2.934 0 0 1 1.08-.226c.048.027.134.08.272.179.282.2.607.427.967.677.405.28.926.534 1.55.753a5.817 5.817 0 0 0 1.932.338c.645 0 1.296-.114 1.933-.338.623-.219 1.145-.472 1.55-.754.368-.255.684-.476.966-.676.139-.099.224-.152.272-.18.395.012.758.088 1.08.227.35.15.646.351.882.596.251.261.479.586.677.965.208.397.375.81.498 1.226.128.435.235.915.32 1.426.085.518.143 1.006.171 1.449.03.45.044.921.044 1.4 0 .917-.238 1.61-.729 2.116zm2.053-3.62a16.404 16.404 0 0 0-.19-1.609 13.596 13.596 0 0 0-.363-1.617 8.36 8.36 0 0 0-.612-1.508 5.656 5.656 0 0 0-.921-1.306 4.035 4.035 0 0 0-1.324-.905 4.251 4.251 0 0 0-1.69-.333c-.24 0-.47.107-.917.423-.275.195-.596.42-.954.67-.307.212-.722.41-1.235.591-.5.176-1.01.265-1.51.265a4.55 4.55 0 0 1-1.511-.265c-.513-.18-.929-.38-1.235-.592-.355-.246-.676-.472-.955-.67-.446-.315-.677-.422-.916-.422-.608 0-1.177.112-1.69.333-.515.222-.96.526-1.324.905a5.658 5.658 0 0 0-.922 1.306c-.254.487-.46.994-.611 1.509a13.627 13.627 0 0 0-.364 1.617c-.094.57-.158 1.111-.19 1.608-.03.486-.046.992-.046 1.503 0 1.33.388 2.405 1.154 3.198.757.783 1.757 1.18 2.975 1.18h11.27c1.217 0 2.217-.397 2.974-1.18.766-.793 1.155-1.869 1.155-3.198 0-.513-.017-1.018-.048-1.503z"/><path fill="none" stroke="#af2e2e" stroke-miterlimit="50" stroke-width=".4" d="M18.427 20.903c-.5.518-1.163.77-2.028.77H5.129c-.866 0-1.53-.252-2.029-.77-.49-.507-.728-1.2-.728-2.117 0-.477.014-.947.043-1.4.028-.443.086-.93.171-1.448.085-.511.192-.991.32-1.426.123-.416.29-.829.498-1.226.198-.379.426-.704.677-.965.235-.245.532-.446.881-.596a2.934 2.934 0 0 1 1.08-.226c.048.027.134.08.272.179.282.2.607.427.967.677.405.28.926.534 1.55.753a5.817 5.817 0 0 0 1.932.338c.645 0 1.296-.114 1.933-.338.623-.219 1.145-.472 1.55-.754.368-.255.684-.476.966-.676.139-.099.224-.152.272-.18.395.012.758.088 1.08.227.35.15.646.351.882.596.251.261.479.586.677.965.208.397.375.81.498 1.226.128.435.235.915.32 1.426.085.518.143 1.006.171 1.449v0c.03.45.044.921.044 1.4 0 .917-.238 1.61-.729 2.116zm2.053-3.62a16.404 16.404 0 0 0-.19-1.609 13.596 13.596 0 0 0-.363-1.617 8.36 8.36 0 0 0-.612-1.508 5.656 5.656 0 0 0-.921-1.306 4.035 4.035 0 0 0-1.324-.905 4.251 4.251 0 0 0-1.69-.333c-.24 0-.47.107-.917.423-.275.195-.596.42-.954.67-.307.212-.722.41-1.235.591-.5.176-1.01.265-1.51.265a4.55 4.55 0 0 1-1.511-.265c-.513-.18-.929-.38-1.235-.592-.355-.246-.676-.472-.955-.67-.446-.315-.677-.422-.916-.422-.608 0-1.177.112-1.69.333-.515.222-.96.526-1.324.905a5.658 5.658 0 0 0-.922 1.306c-.254.487-.46.994-.611 1.509a13.627 13.627 0 0 0-.364 1.617c-.094.57-.158 1.111-.19 1.608-.03.486-.046.992-.046 1.503 0 1.33.388 2.405 1.154 3.198.757.783 1.757 1.18 2.975 1.18h11.27c1.217 0 2.217-.397 2.974-1.18.766-.793 1.155-1.869 1.155-3.198 0-.513-.017-1.018-.048-1.503z"/></g></g></svg>