<svg xmlns="http://www.w3.org/2000/svg" xmlns:xlink="http://www.w3.org/1999/xlink" width="23.804" height="27.263" viewBox="0 0 23.804 27.263">
  <defs>
    <clipPath id="clip-path">
      <rect width="23.804" height="27.263" fill="none"/>
    </clipPath>
  </defs>
  <g id="Component_7_1" data-name="Component 7 – 1" transform="translate(0 0)" clip-path="url(#clip-path)">
    <path id="Path_6" data-name="Path 6" d="M94.4,14.99a7.075,7.075,0,0,0,5.212-2.2,7.314,7.314,0,0,0,2.159-5.3,7.314,7.314,0,0,0-2.16-5.3,7.285,7.285,0,0,0-10.424,0,7.314,7.314,0,0,0-2.16,5.3,7.314,7.314,0,0,0,2.16,5.3A7.077,7.077,0,0,0,94.4,14.99Zm-3.944-11.5a5.512,5.512,0,0,1,7.888,0,5.464,5.464,0,0,1,1.634,4.01,5.464,5.464,0,0,1-1.634,4.01,5.511,5.511,0,0,1-7.888,0,5.463,5.463,0,0,1-1.635-4.01A5.464,5.464,0,0,1,90.459,3.485Zm0,0" transform="translate(-82.42 0.2)" fill="#323232" stroke="#333" stroke-width="0.4"/>
    <path id="Path_7" data-name="Path 7" d="M23.347,256.039c-.038-.594-.115-1.243-.227-1.928a16.3,16.3,0,0,0-.436-1.938,10.018,10.018,0,0,0-.733-1.807,6.778,6.778,0,0,0-1.1-1.566,4.836,4.836,0,0,0-1.587-1.084,5.1,5.1,0,0,0-2.026-.4,1.968,1.968,0,0,0-1.1.506c-.329.233-.714.5-1.144.8a6.307,6.307,0,0,1-1.48.709,5.311,5.311,0,0,1-3.621,0,6.288,6.288,0,0,1-1.479-.709c-.426-.3-.811-.566-1.145-.8a1.965,1.965,0,0,0-1.1-.506,5.089,5.089,0,0,0-2.026.4A4.833,4.833,0,0,0,2.556,248.8a6.781,6.781,0,0,0-1.1,1.565,10.036,10.036,0,0,0-.733,1.808,16.333,16.333,0,0,0-.436,1.938c-.113.684-.189,1.332-.227,1.928S0,257.228,0,257.841a5.307,5.307,0,0,0,1.383,3.832,4.755,4.755,0,0,0,3.565,1.414H18.456a4.755,4.755,0,0,0,3.565-1.414A5.3,5.3,0,0,0,23.4,257.84C23.4,257.226,23.385,256.619,23.347,256.039Zm-2.46,4.339a3.2,3.2,0,0,1-2.431.921H4.948a3.2,3.2,0,0,1-2.431-.921,3.472,3.472,0,0,1-.873-2.537c0-.572.017-1.136.052-1.678s.1-1.116.205-1.736a14.408,14.408,0,0,1,.383-1.709,8.172,8.172,0,0,1,.6-1.47,5.026,5.026,0,0,1,.812-1.157,3.2,3.2,0,0,1,1.056-.714,3.517,3.517,0,0,1,1.295-.272c.058.033.16.1.326.215.338.239.727.513,1.158.812a7.843,7.843,0,0,0,1.858.9,6.826,6.826,0,0,0,4.632,0,7.851,7.851,0,0,0,1.859-.9c.441-.306.819-.572,1.157-.811.166-.118.269-.181.326-.215a3.519,3.519,0,0,1,1.3.272,3.21,3.21,0,0,1,1.056.714,5.014,5.014,0,0,1,.812,1.157,8.141,8.141,0,0,1,.6,1.469,14.374,14.374,0,0,1,.384,1.709c.1.622.172,1.206.205,1.737h0c.035.54.052,1.1.053,1.677A3.472,3.472,0,0,1,20.887,260.378Zm0,0" transform="translate(0.2 -236.024)" fill="#323232" stroke="#333" stroke-width="0.4"/>
  </g>
</svg>
