<svg xmlns="http://www.w3.org/2000/svg" width="15" height="17" viewBox="0 0 15 17"><g><g><g><path fill="#333" d="M7.943 9.789a.477.477 0 0 1-.674 0L5.103 7.622a.477.477 0 0 1 0-.674l.385-.385-1.131-1.131-.927.926a.8.8 0 0 0 0 1.131l3.972 3.973c.15.15.35.232.566.232a.794.794 0 0 0 .565-.233l.927-.926-1.131-1.131z"/></g><g><path fill="#333" d="M11.966 8.223a.469.469 0 0 1-.47-.469 3.99 3.99 0 0 0-1.175-2.84 3.99 3.99 0 0 0-2.84-1.176.469.469 0 0 1 0-.938c1.323 0 2.567.515 3.502 1.451a4.92 4.92 0 0 1 1.451 3.503c0 .259-.21.469-.468.469zM7.012 5.277c0-.259.21-.469.469-.469a2.949 2.949 0 0 1 2.945 2.946.469.469 0 1 1-.937 0A2.01 2.01 0 0 0 7.48 5.746a.469.469 0 0 1-.47-.469zm3.377 5.554l-1.243 1.243a1.712 1.712 0 0 1-1.219.503c-.461 0-.894-.178-1.219-.503L2.803 8.169a1.726 1.726 0 0 1 0-2.438l1.242-1.243a.468.468 0 0 1 .663 0l1.775 1.775a.469.469 0 0 1 0 .663l-.378.379 1.467 1.467.379-.379a.469.469 0 0 1 .663 0l1.775 1.775a.468.468 0 0 1 0 .663zm4.298-4.457c0-1.503-.589-2.92-1.658-3.989A5.607 5.607 0 0 0 9.039.727H5.695c-1.503 0-2.92.589-3.989 1.658A5.607 5.607 0 0 0 .047 6.374v2.63c0 1.163.355 2.283 1.026 3.237.593.842 1.39 1.5 2.319 1.916v1.511c0 .781.437 1.058.812 1.059.267 0 .535-.133.796-.393l1.683-1.683H9.04c1.503 0 2.92-.59 3.989-1.659a5.607 5.607 0 0 0 1.658-3.988z"/></g></g></g></svg>