<svg xmlns="http://www.w3.org/2000/svg" width="17.527" height="10" viewBox="0 0 17.527 10">
  <path id="Path_1" data-name="Path 1" d="M17.434,126.779a1.2,1.2,0,0,0-.059-.114,9.084,9.084,0,0,0-1.743-2.017l-.018-.018-.009-.009-.009-.009h-.009q-.584-.557-.739-.748a.7.7,0,0,1-.128-.739,6.891,6.891,0,0,1,.821-1.2q.374-.484.593-.776,1.579-2.1,1.369-2.683l-.054-.091a.534.534,0,0,0-.283-.151,1.437,1.437,0,0,0-.584-.023l-2.628.018a.341.341,0,0,0-.183,0l-.119.027-.046.023-.036.027a.406.406,0,0,0-.1.1.627.627,0,0,0-.091.16,14.9,14.9,0,0,1-.977,2.053q-.338.566-.621.981a4.719,4.719,0,0,1-.474.611,3.311,3.311,0,0,1-.347.315q-.155.119-.237.1l-.155-.037a.607.607,0,0,1-.205-.224,1,1,0,0,1-.1-.356q-.027-.215-.032-.37t0-.438q.009-.283.009-.383,0-.347.014-.753t.023-.643q.009-.237.009-.5a2.109,2.109,0,0,0-.032-.415,1.42,1.42,0,0,0-.1-.292.492.492,0,0,0-.187-.219,1.055,1.055,0,0,0-.306-.123,6.073,6.073,0,0,0-1.232-.119,5.987,5.987,0,0,0-2.181.219,1.23,1.23,0,0,0-.347.274q-.164.2-.046.219a1.119,1.119,0,0,1,.776.392l.055.11a1.745,1.745,0,0,1,.128.42,4.235,4.235,0,0,1,.082.666,7.1,7.1,0,0,1,0,1.141q-.046.475-.087.739a1.48,1.48,0,0,1-.123.429,1.811,1.811,0,0,1-.11.2.157.157,0,0,1-.046.046.684.684,0,0,1-.246.046.578.578,0,0,1-.31-.128,2.189,2.189,0,0,1-.379-.351,4.7,4.7,0,0,1-.443-.625q-.246-.4-.511-.949l-.146-.265q-.137-.255-.374-.744t-.42-.945a.6.6,0,0,0-.219-.292l-.046-.027a.624.624,0,0,0-.146-.078.969.969,0,0,0-.21-.059l-2.5.018a.635.635,0,0,0-.52.173l-.037.055A.3.3,0,0,0,0,118.58a.727.727,0,0,0,.055.246q.548,1.287,1.191,2.482t1.118,1.925q.475.73.967,1.378t.652.83q.16.183.251.274l.228.219a5.413,5.413,0,0,0,.643.525,10.973,10.973,0,0,0,.94.6,5.1,5.1,0,0,0,1.2.483,4.15,4.15,0,0,0,1.332.151H9.628a.727.727,0,0,0,.484-.2l.036-.046a.605.605,0,0,0,.068-.169.927.927,0,0,0,.032-.251,3.007,3.007,0,0,1,.059-.707,1.86,1.86,0,0,1,.155-.475,1.166,1.166,0,0,1,.2-.269.793.793,0,0,1,.155-.132.593.593,0,0,1,.073-.032.579.579,0,0,1,.516.142,3.029,3.029,0,0,1,.557.529q.26.315.625.707a4.3,4.3,0,0,0,.639.584l.182.109a2.223,2.223,0,0,0,.475.2,1.023,1.023,0,0,0,.511.046l2.336-.036a1.059,1.059,0,0,0,.538-.114.452.452,0,0,0,.228-.251.707.707,0,0,0,0-.31A1.146,1.146,0,0,0,17.434,126.779Z" transform="translate(0 -117.748)" fill="#333"/>
</svg>
