<svg id="wallet" xmlns="http://www.w3.org/2000/svg" width="34" height="34" viewBox="0 0 34 34">
  <path id="Path_96" data-name="Path 96" d="M326.654,336a.654.654,0,1,0,.654.654A.655.655,0,0,0,326.654,336Zm0,0" transform="translate(-304.339 -313.674)" fill="#af2e2e"/>
  <path id="Path_98" data-name="Path 98" d="M110.654,109.926a.654.654,0,0,0,.654-.654v-2.617a.654.654,0,0,0-1.309,0v2.617A.654.654,0,0,0,110.654,109.926Zm0,0" transform="translate(-102.691 -98.947)" fill="#af2e2e"/>
  <path id="Path_99" data-name="Path 99" d="M31.344,15.672V10.359a3.324,3.324,0,0,0-3.32-3.32H24.3V1.992A1.994,1.994,0,0,0,22.313,0H9.961A1.994,1.994,0,0,0,7.969,1.992V4.383H5.977A1.994,1.994,0,0,0,3.984,6.375v.664H3.32A3.324,3.324,0,0,0,0,10.359V30.68A3.324,3.324,0,0,0,3.32,34h20.32a3.326,3.326,0,0,0,3.253-2.656h1.129a3.324,3.324,0,0,0,3.32-3.32V26.3h.664A1.994,1.994,0,0,0,34,24.3V18.328A2.659,2.659,0,0,0,31.344,15.672Zm1.328,2.656a1.328,1.328,0,0,1-1.328,1.328V17A1.33,1.33,0,0,1,32.672,18.328ZM28.023,8.367a1.994,1.994,0,0,1,1.992,1.992v9.3H26.961V15.672A3.326,3.326,0,0,0,24.3,12.418V8.367ZM9.3,1.992a.665.665,0,0,1,.664-.664H22.313a.665.665,0,0,1,.664.664V12.352H19.922V6.375A1.994,1.994,0,0,0,17.93,4.383H9.3Zm6.641,10.359V5.711H17.93a.665.665,0,0,1,.664.664v5.977Zm-3.984,0V5.711h2.656v6.641ZM5.313,6.375a.665.665,0,0,1,.664-.664h4.648v6.641H5.313ZM3.32,8.367h.664v3.984H3.462a2.054,2.054,0,0,1-2.134-1.992A1.994,1.994,0,0,1,3.32,8.367Zm20.32,24.3H3.32A1.994,1.994,0,0,1,1.328,30.68V12.975a3.576,3.576,0,0,0,2.134.705H23.641a1.994,1.994,0,0,1,1.992,1.992v3.984H20.984a1.994,1.994,0,0,0-1.992,1.992V24.3A1.994,1.994,0,0,0,20.984,26.3h4.648V30.68A1.994,1.994,0,0,1,23.641,32.672Zm6.375-4.648a1.994,1.994,0,0,1-1.992,1.992H26.961V26.3h3.055Zm1.992-3.055H20.984a.665.665,0,0,1-.664-.664V21.648a.665.665,0,0,1,.664-.664H31.344a2.638,2.638,0,0,0,1.328-.356V24.3A.665.665,0,0,1,32.008,24.969Zm0,0" fill="#af2e2e"/>
  <path id="Path_100" data-name="Path 100" d="M369.664,336h-3.01a.654.654,0,0,0,0,1.309h3.01a.654.654,0,0,0,0-1.309Zm0,0" transform="translate(-341.642 -313.674)" fill="#af2e2e"/>
</svg>
